solid left
   facet normal 0.000000e+00 1.000000e+00 0.000000e+00
      outer loop
         vertex 1.170000e+02 -1.800000e+01 3.240000e+01
         vertex 1.170000e+02 -1.800000e+01 -5.040000e-01
         vertex -3.780000e+01 -1.800000e+01 3.240000e+01
      endloop
   endfacet
   facet normal 0.000000e+00 1.000000e+00 0.000000e+00
      outer loop
         vertex -3.780000e+01 -1.800000e+01 3.240000e+01
         vertex 1.170000e+02 -1.800000e+01 -5.040000e-01
         vertex -3.780000e+01 -1.800000e+01 -5.040000e-01
      endloop
   endfacet
endsolid