solid outlet
   facet normal 1.000000e+00 0.000000e+00 -0.000000e+00
      outer loop
         vertex 4.371975e+00 1.553265e+00 -7.620000e-02
         vertex 4.371975e+00 1.553265e+00 2.057400e+00
         vertex 4.371975e+00 -1.553265e+00 -7.620000e-02
      endloop
   endfacet
   facet normal 1.000000e+00 0.000000e+00 0.000000e+00
      outer loop
         vertex 4.371975e+00 -1.553265e+00 -7.620000e-02
         vertex 4.371975e+00 1.553265e+00 2.057400e+00
         vertex 4.371975e+00 -1.553265e+00 2.057400e+00
      endloop
   endfacet
endsolid