solid inlet
   facet normal 1.000000e+00 0.000000e+00 -0.000000e+00
      outer loop
         vertex -7.334231e+00 1.494735e+00 -7.620000e-02
         vertex -7.334231e+00 1.494735e+00 2.057400e+00
         vertex -7.334231e+00 -1.494735e+00 -7.620000e-02
      endloop
   endfacet
   facet normal 1.000000e+00 0.000000e+00 0.000000e+00
      outer loop
         vertex -7.334231e+00 -1.494735e+00 -7.620000e-02
         vertex -7.334231e+00 1.494735e+00 2.057400e+00
         vertex -7.334231e+00 -1.494735e+00 2.057400e+00
      endloop
   endfacet
endsolid